<?xml version="1.0" encoding="iso-8859-1"?>
<!-- Generator: Adobe Illustrator 21.1.0, SVG Export Plug-In . SVG Version: 6.00 Build 0)  -->
<svg version="1.1" id="Layer_1" xmlns="http://www.w3.org/2000/svg" xmlns:xlink="http://www.w3.org/1999/xlink" x="0px" y="0px"
	 viewBox="0 0 200 200" style="enable-background:new 0 0 200 200;" xml:space="preserve">
<style type="text/css">
	.st0{fill:#5B7985;}
</style>
<g id="lexi-back-x_x60_16x16">
	<path class="st0" d="M14.707,13.507c0.33,0.33,0.33,0.885,0,1.215c-0.165,0.165-0.375,0.255-0.63,0.255
		c-0.21,0-0.42-0.09-0.6-0.255L7.492,8.737l-6.015,5.984c-0.165,0.165-0.375,0.255-0.585,0.255c-0.27,0-0.465-0.09-0.645-0.255
		c-0.33-0.33-0.33-0.885,0-1.215l5.984-5.985l-5.984-6c-0.33-0.33-0.33-0.93,0-1.275c0.345-0.33,0.885-0.33,1.229,0l6.015,6.044
		l5.985-6.044c0.345-0.33,0.885-0.33,1.229,0c0.33,0.345,0.33,0.945,0,1.275l-6,6L14.707,13.507z"/>
</g>
</svg>
